<?xml version="1.0" encoding="utf-8"?>
<!-- Generator: Adobe Illustrator 26.2.1, SVG Export Plug-In . SVG Version: 6.00 Build 0)  -->
<svg version="1.1" id="Layer_1" xmlns="http://www.w3.org/2000/svg" xmlns:xlink="http://www.w3.org/1999/xlink" x="0px" y="0px"
	 width="1000px" height="1000px" viewBox="0 0 1000 1000" enable-background="new 0 0 1000 1000" xml:space="preserve">
<g transform="translate(0.000000,128.000000) scale(0.100000,-0.100000)">
	<g>
		<path d="M2854.4-2227.6c-301.5,0-389.9,99.4-477.1,327c-40,119.2-152.9,261.1-230.5,317.5c-173.5,111.1-245.6,286.1-191.5,475.6
			c16.2,59.2-2.3,192-37.1,261.4c-34.8,63.1-133.7,243.2-30.4,379.7c107.8,142.4,337.2,122.8,697.2,40.9L3015.1-527l424.2,489.4
			c427.5,504.3,498.2,544.8,1208.7,98.2l381.2-244.7l334.6,197.4c15.3,9.3,415.2,251.3,563.3,251.3c86.5,0,154.8-58.8,202.9-174.7
			c78-188.3,190.6-841.2,20.7-1023.4c-20.5-33.4-56.4-166.6-56.4-295.8l0.1-27.9c1.5-440.3-59.2-451-1614-725.3l-136.7-24.1
			C3571-2146.8,3126.1-2227.6,2854.4-2227.6z M2129.4-641c6.2-17.2,17-41.8,35.7-75.9c60.4-120.4,97.3-324.4,58.7-465.5
			c-15.2-53.2-15.7-109.4,80.3-171c121.2-87.7,275.5-273.3,335.6-453.5c74.9-194.9,80.9-211.4,1654.8,74.3l137.4,24.3
			c716.5,126.4,1111.3,195.9,1285.6,264.4c98.6,38.6,98.6,38.6,98.1,185.8l-0.1,28.9c0,133.7,34.6,378.5,126.7,480.7
			c46.3,102.8,3,550.5-61.4,716.4c-78.3-31.5-219.3-99.4-373.7-193.2l-484.8-286.1l-522.9,336.5c-262.2,164.8-435.6,274.6-518.6,268
			c-69.7-4.8-167.2-119.8-328.9-310.4l-53.3-62.8l-483.7-556.4l-593.2,140C2286-642.8,2177.7-637.5,2129.4-641z M6148.4-936
			c-0.6-0.6-1.3-1.3-1.9-1.9C6147.1-937.3,6147.7-936.7,6148.4-936z M5940.6-752.1L5940.6-752.1L5940.6-752.1z M5949.4-741.1
			C5949.3-741.1,5949.3-741.1,5949.4-741.1C5949.3-741.1,5949.3-741.1,5949.4-741.1z"/>
		<path fill="#FFC0C0" d="M6047.9-839.5c-46.5-46.4-92.9-232-92.9-389.7c0-361.9,46.5-343.3-1635.5-640.2
			c-1635.5-296.9-1691.2-296.9-1812,18.6c-46.5,139.2-176.6,306.2-278.8,380.4c-130.1,83.5-176.6,194.9-139.4,324.8
			c27.9,102.1,0,269.1-46.5,361.9c-158,287.6-18.6,343.3,511.1,222.7l511.1-120.6L3492.5-190c473.9,556.7,418.2,547.4,1189.4,65
			l343.8-222.7l408.9,241.2c213.7,129.9,436.7,232,492.5,232C6057.2,125.5,6168.7-718.9,6047.9-839.5z"/>
		<path fill="#E24B4B" d="M5927.1,125.5c-55.8,0-278.8-102.1-492.5-232l-408.9-241.2l-343.8,222.7
			c-771.3,482.5-715.5,491.8-1189.4-65l-427.4-491.8L2554-561.1c-529.7,120.6-669.1,65-511.1-222.7c46.5-92.8,74.3-259.8,46.5-361.9
			c-37.2-129.9,9.3-241.2,139.4-324.8c102.2-74.2,232.3-241.2,278.8-380.4c120.8-315.5,176.6-315.5,1812-18.6
			C6001.5-1572.5,5955-1591.1,5955-1229.2c0,157.7,46.5,343.3,92.9,389.7C6168.7-718.9,6057.2,125.5,5927.1,125.5z M5862.1-60.1
			c27.9-9.3-37.2-74.2-139.4-148.5c-241.6-185.6-511.1-334-511.1-278.4C5211.6-440.5,5797-60.1,5862.1-60.1z M4849.2-422
			c148.7-83.5,232.3-157.7,185.8-176.3c-46.5-18.6-65-111.3-37.2-204.1c83.6-334-130.1-194.8-269.5,176.3L4589-264.2L4849.2-422z
			 M4282.4-644.7c0-176.3-92.9-250.5-241.6-185.6c-195.1,74.2-158,306.2,55.8,306.2C4198.7-524,4282.4-579.7,4282.4-644.7z
			 M2377.4-1359.1c-74.3,0-139.4,65-139.4,139.2c0,74.2,65,139.2,139.4,139.2s139.4-65,139.4-139.2
			C2516.8-1294.2,2451.8-1359.1,2377.4-1359.1z M2405.3-793.1c-120.8,0-167.3,27.8-102.2,46.4c55.8,27.8,269.5,9.3,464.6-46.4
			c343.8-92.8,353.1-92.8,752.7,361.9c223,259.8,473.9,463.9,557.5,454.7c130.1,0,120.8-18.6-27.9-74.2
			c-260.2-111.3-789.9-798-789.9-1020.6c0-259.8-130.1-241.2-408.9,37.1C2721.3-904.5,2526.1-802.4,2405.3-793.1z M4960.7-1294.2
			c-455.3-27.8-1133.7-139.2-1514.7-241.2c-817.7-222.7-975.7-232-641.2-55.7c576.1,315.5,2964.3,658.8,2964.3,426.8
			C5769.1-1201.4,5406.7-1266.3,4960.7-1294.2z M6001.5-709.6c-46.5-74.2-102.2-74.2-158-18.6c-55.8,55.7-65,148.5-27.9,204.1
			c46.5,74.2,102.2,74.2,158,18.6C6029.3-561.1,6038.6-653.9,6001.5-709.6z"/>
		<g>
			<path fill="#E24B4B" d="M3548.3,1109c-185.8-222.7-55.8-445.4,241.6-408.3c204.4,18.6,260.2,74.2,260.2,259.8
				C4050.1,1238.9,3724.8,1331.7,3548.3,1109z"/>
			<path d="M3726.3,650.2c-129.5,0-232.8,50.1-282,140c-55.1,100.7-29.7,230.8,68,348.1c97.1,122.2,246.6,171,381,124.2
				c125.4-43.5,203.3-159.2,203.3-301.9c0-210.9-73.5-285.2-302.4-306C3770.8,651.6,3748.1,650.2,3726.3,650.2z M3790.3,1187
				c-75.4,0-151-38-205.5-106.8l-0.7-0.9c-72.6-87-94.4-178.5-58.2-244.6c38.6-70.5,135.2-103.6,258.3-87.9
				c192.3,17.5,219.5,61.2,219.5,213.8c0,103.5-52.7,183.6-140.9,214.3C3839,1183,3814.7,1187,3790.3,1187z"/>
		</g>
		<g>
			<path fill="#E24B4B" d="M5824.9,997.7c-176.6-176.3-158-306.2,65-445.4c120.8-74.2,195.1-55.7,315.9,65s139.4,194.9,65,315.5
				C6131.5,1155.4,6001.5,1173.9,5824.9,997.7z"/>
			<path d="M6017.3,462.1c-45.5,0-94.8,15.6-151.7,50.7c-129.8,81-194.7,159.7-204.8,247.9c-9.7,85,32,170.7,131.2,269.8l0,0
				c99.4,99.2,186,140.7,270.3,131.1c88.3-10.1,167.2-74.9,248-204.2c96.2-156.1,46.6-254.9-71.6-372.9
				C6163.7,509.5,6096.4,462.1,6017.3,462.1z M5857.7,964.8c-76.5-76.4-110.7-139.8-104.5-193.7c6.4-57,59.3-115.8,161.3-179.5
				c92.8-57,143.2-56.7,258.5,58.4c115.2,115.1,115.6,165.5,58.3,258.4c-63.6,101.7-122.4,154.4-179.6,160.9
				C5998.5,1075.7,5934.4,1041.4,5857.7,964.8L5857.7,964.8z"/>
		</g>
		<g>
			<path fill="#E24B4B" d="M1513.2,292.5c-269.5-269.1,27.9-677.3,315.9-436.1c176.6,139.2,167.3,417.5-18.6,491.8
				S1643.3,422.4,1513.2,292.5z"/>
			<path d="M1650.2-263.4c-80.9,0-152.9,36.9-203.1,91.6c-107.7,117.4-132.6,331.5,33.3,497.1l24,24.2
				c113.6,114.7,133.4,118,302.5,50.2l20.9-8.4c93.3-37.2,155.6-119.6,171.1-225.9c18.8-129.6-35.2-262-140.9-345.3
				C1787.5-239.1,1715.9-263.4,1650.2-263.4z M1663.4,347.6c-30,0-49.3-19.4-92.9-63.5l-24.4-24.5c-125-124.9-109-283.2-30.5-368.8
				c59.4-64.7,165.1-98.3,283.7,1.1c79.6,62.8,121.5,164.5,107.6,260c-10.5,72.7-52,128.5-113.6,153.1l-21.1,8.5
				C1717.6,335.4,1687.1,347.6,1663.4,347.6z"/>
		</g>
	</g>
	<path fill="#41AD3B" d="M8888-5456.6c-13.7-78.7-41.2-150.5-76.3-215.5c-19.1-96-46.6-184.5-79.4-245.8
		c-61-121-129.7-355.4-152.6-529.4c-45.8-438.6-373.9-983.2-808.9-1368.9c-732.6-658-2197.7-1021-3487.4-869.7
		c-778.4,98.3-1045.5,173.9-1617.8,476.5C1215.7-7460.7,704.4-5789.4,1421.7-4186.1c91.6,219.3,213.7,574.8,259.5,786.5
		C1788-2908,1910.1-2666,2230.6-2348.3c511.3,514.3,1251.5,726,1945.9,552.1c297.6-75.6,373.9-75.6,480.8,22.7
		c76.3,68.1,267.1,166.4,435,226.9c717.3,264.7,1511,83.2,2075.7-476.5c198.4-196.6,518.9-468.9,709.7-597.5
		c312.9-211.8,358.7-272.3,404.5-589.9c22.9-196.6,83.9-400.8,122.1-446.2c61-68.1,53.4-204.2-7.6-446.2
		c-77.1-300.2-46.6-546,76.3-701.8c32-3.8,63.3-12.1,94.6-25c93.9-37.8,218.2-131.6,285.4-280.6
		C8922.3-5263.8,8897.1-5403.7,8888-5456.6z"/>
	<path fill="#FFFFFF" d="M8244.5-3021.3c-102.2,61.8-215.2,110.8-332.5,149c-83.7-17.8-251.1-28-454.1-28
		c-435,0-625.7-37.8-946.2-196.6l-249.4-121.2c-58-100-162.9-172.5-314.8-172.5c-114.2,0-201.5,41-262.6,103.7
		c-39.8,5.7-87,13.6-142.4,23.7c-953.9,151.3-1625.4,0-2281.7-529.4c-175.5-143.7-373.9-279.8-450.2-302.5
		c-206-75.6-122.1-219.3,221.3-393.3c236.6-121,457.9-151.3,1060.7-151.3c717.3,0,793.6,15.1,1297.3,264.7
		c156.4,75,276.5,132.6,369.7,176.8c61.2,78,156.5,131.4,286.6,131.4c131,0,226.7-53.9,287.9-132.7c126.8,8.1,297.1,13.6,482.8,13.6
		c610.5,0,763.1,30.3,1114.1,196.6c89.3,44.3,163.2,77.1,222.6,100.6c33.5,48.5,66.9,97.2,97.7,148.2
		c50.9,84.3,72.1,174.2,81.4,266.9c-21,78.3-40.2,171.5-50.6,263.2C8271.1-3134.4,8259.6-3073.5,8244.5-3021.3z"/>
	<path d="M8852.9-5110.2c-48.8,108.9-129,189.1-205.3,238.2c-27.5,18.1-54.9,32.5-80.1,42.4c-31.3,12.9-62.6,21.2-94.6,25
		c-58,74.1-95.4,167.9-110.7,278.3c-9.9,72.6-10.7,151.3,0,236.7c6.1,59.7,17.5,121.8,34.3,186.8c61,242,68.7,378.1,7.6,446.2
		c-12.2,14.4-26.7,44.6-42,86.2c-31.3,88.5-64.9,226.1-80.1,360c-32.1,223.1-64.1,319.1-189.3,429.6
		c-52.7,47.6-122.1,96.8-215.2,160.3c-190.8,128.6-511.3,400.8-709.7,597.5c-393,389.5-897.4,595.9-1409.5,595.9
		c-223.6,0-448.7-39.3-666.2-119.5c-167.9-60.5-358.7-158.8-435-226.9c-106.8-98.3-183.1-98.3-480.8-22.7
		c-694.4,173.9-1434.6-37.8-1945.9-552.1C1910.1-2666,1788-2908,1681.2-3399.5c-45.8-211.8-167.9-567.2-259.5-786.5
		c-18.3-40.8-35.9-82.4-52.7-123.3c-367.1-901.5-350.3-1815.8,0-2569.1c103-221.6,235.8-429.6,395.3-618.6
		c239.6-284.4,541.8-527.1,901.2-712.4c572.3-302.5,839.4-378.1,1617.8-476.5c1289.7-151.3,2754.8,211.8,3487.4,869.7
		c109.9,97.6,213.7,205.7,307.5,319.1c135.1,164.1,249.5,341.1,335,516.5c90,183.8,148.8,366,166.4,533.2
		c22.9,173.9,91.6,408.4,152.6,529.4c32.8,61.3,60.3,149.7,79.4,245.8c35.1,65,62.6,136.9,76.3,215.5
		C8897.1-5403.7,8922.3-5263.8,8852.9-5110.2z M8106.5-3172.7c152.6-234.4,76.3-514.3-167.9-635.3
		c-129.7-68.1-244.2-113.4-251.8-98.3c-7.6,15.1-45.8,128.6-83.9,249.6c-53.4,158.8-175.5,279.8-404.4,393.3
		c-297.6,143.7-312.9,166.4-152.6,196.6C7374-2991.2,8037.9-3059.2,8106.5-3172.7z M7488.4-3815.5c0-151.3-228.9-226.9-305.2-98.3
		c-83.9,128.6,53.4,302.5,198.4,242C7442.6-3694.5,7488.4-3762.6,7488.4-3815.5z M5237.3-1682.8c412.1,128.6,709.7,128.6,1114.1-7.6
		c183.1-60.5,442.6-196.6,564.7-294.9l228.9-181.5l-351,37.8c-404.5,45.4-1098.9-143.7-1167.6-325.2
		c-53.4-128.6-53.4-128.6,282.4,7.6c381.6,158.8,1091.2,143.7,1465.2-30.3l305.2-143.7l-244.2-7.6
		c-176.3-4.5-445.7-70.3-676.1-152.8c-187.7-68.1-350.3-146-415.1-210.2c-99.2-105.9-99.2-113.4,38.2-60.5
		c389.9,148.2,844.8,245.8,1169.1,270.7c105.3,7.6,196.9,8.3,268.6,0c77.1-9.1,130.5-28,149.6-59c22.9-37.8-206-60.5-511.3-60.5
		c-435,0-625.7-37.8-946.2-196.6l-404.4-196.6L5969.8-3097c-42,57.5-158.7,177-308.3,316.1c-124.4,117.2-270.9,248.8-416.7,372.1
		C4611.5-1871.9,4611.5-1879.4,5237.3-1682.8z M6572.7-3467.6c45.8,0,99.2-52.9,129.7-121c61-158.8-99.2-317.6-213.7-204.2
		C6389.5-3694.5,6450.6-3467.6,6572.7-3467.6z M6420.1-3392c-83.9-83.2-175.5-257.1-206-378.1c-45.8-257.1-175.5-226.9-175.5,37.8
		c0,105.9,83.9,242,213.7,332.8C6519.3-3202.9,6618.5-3195.4,6420.1-3392z M4260.5-3497.9c-305.2-60.5-206,30.3,114.5,105.9
		c351,83.2,427.3,83.2,931,0c488.4-75.6,534.2-105.9,610.5-347.9c38.2-128.6-7.6-196.6-221.3-325.2
		c-366.3-211.8-396.8-204.2-526.5,90.8C5038.8-3656.7,4603.9-3429.8,4260.5-3497.9z M4802.3-4314.6
		c-45.8,45.4-53.4,113.4-22.9,166.4c68.7,105.9,282.4,68.1,328.1-52.9C5145.7-4329.8,4909.1-4420.5,4802.3-4314.6z M4001-3823.1
		c129.7,45.4,358.7-83.2,358.7-204.2c0-151.3-190.8-279.8-335.8-226.9C3878.9-4201.2,3856-3876,4001-3823.1z M3795-3777.7
		c-114.5-136.1-198.4-325.2-198.4-453.8c0-249.6-83.9-272.3-457.9-121l-244.2,105.9l373.9,264.7
		c343.4,249.6,633.4,431.1,694.4,438.6C3978.1-3543.2,3901.8-3649.1,3795-3777.7z M8452.2-6224.2c-19.1-57.5-13-40.1-48.1-147.5
		c-92.3-279.8-170.9-514.3-177.8-534.7c-7.6-21.9-18.3-46.9-32-74.1c-64.9-131.6-200.7-319.1-398.3-516.5
		c-210.6-209.5-491.4-431.1-834.1-614.1c-806.6-428-1567.4-423.5-2029.9-423.5c-1289.7,0-2190.1,310.1-2861.6,975.6
		c-20.6,20.4-41.2,40.8-61,62c-313.6,326.7-526.5,676.1-640.2,1059.5c-131.3,443.9-130.5,934,0,1487.6
		c58,246.5,141.9,505.9,251.1,779c122.1,302.5,221.3,627.7,221.3,710.9c0,453.8,503.6,1119.3,1030.2,1361.3
		c488.4,226.9,1259.1,196.6,1739.9-60.5l381.6-211.8l-457.9-52.9c-398.3-45.4-737.2-161.8-1013.4-357
		c-94.6-65.8-181.6-140.7-261-225.4c-297.6-310.1-206-294.9,213.7,22.7c101.5,76.4,219.8,145.2,345.7,202.7
		c345.7,161.1,752.4,242.8,1043.2,198.1c121.3-19.7,339.6-108.9,514.3-198.1c166.4-84.7,293.8-169.4,264-195.1
		c-15.3-7.6-228.9,7.6-480.8,45.4c-251.8,30.3-595.2,37.8-763.1,15.1c-373.9-52.9-915.7-317.6-1198.1-574.8
		c-358.7-332.8-236.6-378.1,167.9-60.5c206,166.4,503.6,340.3,663.9,393.3c335.8,105.9,1678.8,45.4,1808.6-83.2
		c61-68.1-7.6-75.6-297.6-22.7c-953.9,151.3-1625.4,0-2281.7-529.4c-175.5-143.7-373.9-279.8-450.2-302.5
		c-206-75.6-122.1-219.3,221.3-393.3c236.6-121,457.9-151.3,1060.7-151.3c717.3,0,793.6,15.1,1297.3,264.7
		c694.4,332.8,702.1,340.3,595.2,219.3c-53.4-52.9-99.2-196.6-99.2-310.1c0-139.9-36.6-279.1-104.5-406.1
		c-86.2-161.8-220.5-304.8-391.5-410.7c-145-90.8-267.1-196.6-267.1-234.4c0-98.3,53.4-83.2,381.6,121
		c213.7,133.9,384.6,328.2,471.6,524.1c40.4,91.5,62.6,183.8,62.6,270c0,204.2,38.2,196.6,465.5-113.4
		c83.2-58.2,167.1-112.7,239.6-156.5c106.8-65,190.8-108.1,218.2-108.1c65.6,0,59.5,40.1-5.3,108.1
		c-77.8,81.7-241.9,204.2-467.8,345.6c-206,136.1-373.9,264.7-373.9,294.9c0,22.7,320.5,45.4,702.1,45.4
		c610.5,0,763.1,30.3,1114.1,196.6c457.9,226.9,541.8,173.9,106.8-68.1c-152.6-83.2-473.1-181.5-702.1-204.2
		c-633.4-68.1-793.6-113.4-717.3-189.1c99.2-90.8,1121.8,45.4,1404.1,189.1c267.1,136.1,282.4,90.8,76.3-249.6
		c-152.6-242-152.6-249.6-15.3-204.2c35.1,11.3,88.5,10.6,128.2-8.3c39.7-19.7,48.1-56,60.3-96c-46.6-12.9-93.1-30.3-138.1-52.2
		c-150.3-71.1-286.2-180.8-380.8-255.6l-36.6-29.5c-592.2-463.6-1385-484.8-1969.6-500.7c-667.7-15.9-1838.3,134.6-2190.9,203.4
		h-0.8c-54.2,10.6-150.3,23.4-268.6,12.9c-165.6,112.7-698.2,100.6-880.6-22.7c-183.1-136.1-99.2-234.4,106.8-128.6
		c91.6,45.4,274.7,83.2,412.1,75.6c12.2-0.8,23.7-1.5,35.1-2.3c-114.5-47.6-237.3-127.8-285.4-267.7
		c-34.3-99.1-41.2-263.2,124.4-479.5c197.6-257.1,502.9-326.7,799.7-376.6c737.9-124,1447.6-145.2,1739.9-148.2
		c16.8-5.3,41.2-7.6,80.1-7.6c88.5,0,251.8,12.9,570.8,37.1c293.8,22.7,689.1,58.2,902.8,96.8
		c627.3,113.4,1128.6,305.5,1531.6,588.4c24.4,17.4,61,43.1,103.8,76.4C8507.2-6060.9,8482-6133.5,8452.2-6224.2z M8662.8-5417.3
		c-42.7-244.3-290-417.5-370.9-474.2c-557.8-391-1221.7-511.2-1440-550.6c-318.2-57.5-1107.3-112.7-1377.4-127.1v4.5
		c-9.2-0.8-900.5-12.1-1837.6,145.2c-261.7,43.9-509,99.1-655.5,290.4c-109.9,143.7-103.8,229.2-90.8,267.7
		c28.2,79.4,135.8,139.9,320.5,180c138.1,29.5,255.6,12.9,299.9,4.5h0.8c360.2-70.3,1555.2-224.6,2246.6-207.2
		c611.2,15.9,1448.4,37.8,2100.8,549.1l38.2,30.3c124.4,99.8,415.9,332.8,583.8,264.7c38.2-15.1,87.8-51.4,125.9-102.1
		c-7.6-3.8-13.7-9.8-19.8-16.6c-58-67.3-120.6-131.6-186.2-191.3c-148-133.1-334.2-254.9-538.8-352.4
		c-464.7-222.3-1035.5-331.2-1333.9-375.9c-874.5-132.3-1578.9-99.8-1840.6-79.4c-444.9,34-889,107.4-1323.2,218.6
		c-6.9,1.5-13,2.3-19.8,2.3c-32.8,0-63.3-21.9-72.5-55.2c-10.7-40.8,13.7-83.2,54.9-93.8c441.8-112.7,895.1-188.3,1348.4-223.1
		c111.4-8.3,300.7-19.7,547.1-19.7c347.2,0,808.9,21.9,1328.6,100.6c307.5,46.1,895.1,158.8,1377.4,388.7
		c217.5,104.4,416.7,234.4,574.6,377.4c58,52.2,113.7,107.4,165.6,165.6C8675-5347.7,8667.4-5391.6,8662.8-5417.3z"/>
	<path fill="#E84D60" d="M8662.8-5417.3c-42.7-244.3-290-417.5-370.9-474.2c-557.8-391-1221.7-511.2-1440-550.6
		c-318.2-57.5-1107.3-112.7-1377.4-127.1v4.5c-9.2-0.8-900.5-12.1-1837.6,145.2c-261.7,43.9-509,99.1-655.5,290.4
		c-109.9,143.7-103.8,229.2-90.8,267.7c28.2,79.4,135.8,139.9,320.5,180c138.1,29.5,255.6,12.9,299.9,4.5h0.8
		c360.2-70.3,1555.2-224.6,2246.6-207.2c611.2,15.9,1448.4,37.8,2100.8,549.1l38.2,30.3c124.4,99.8,415.9,332.8,583.8,264.7
		c38.2-15.1,87.8-51.4,125.9-102.1c-7.6-3.8-13.7-9.8-19.8-16.6c-58-67.3-120.6-131.6-186.2-191.3
		c-148-133.1-334.2-254.9-538.8-352.4c-464.7-222.3-1035.5-331.2-1333.9-375.9c-874.5-132.3-1578.9-99.8-1840.6-79.4
		c-444.9,34-889,107.4-1323.2,218.6c-6.9,1.5-13,2.3-19.8,2.3c-32.8,0-63.3-21.9-72.5-55.2c-10.7-40.8,13.7-83.2,54.9-93.8
		c441.8-112.7,895.1-188.3,1348.4-223.1c111.4-8.3,300.7-19.7,547.1-19.7c347.2,0,808.9,21.9,1328.6,100.6
		c307.5,46.1,895.1,158.8,1377.4,388.7c217.5,104.4,416.7,234.4,574.6,377.4c58,52.2,113.7,107.4,165.6,165.6
		C8675-5347.7,8667.4-5391.6,8662.8-5417.3z"/>
	<path d="M5160.9-4647.4c-320.5-113.4-1198.1-151.3-1663.6-68.1c-175.5,37.8-282.3,22.7-282.3-22.7
		c0-113.4,938.6-264.7,1312.5-204.2c473.1,68.1,1129.4,272.3,1129.4,347.9C5657-4503.7,5519.6-4518.8,5160.9-4647.4z"/>
</g>
</svg>
